<svg width="41" height="41" viewBox="0 0 41 41" fill="none" xmlns="http://www.w3.org/2000/svg">
<g clip-path="url(#clip0_343_191)">
<path d="M20.5 41C31.8218 41 41 31.8218 41 20.5C41 9.17816 31.8218 0 20.5 0C9.17816 0 0 9.17816 0 20.5C0 31.8218 9.17816 41 20.5 41Z" fill="url(#paint0_linear_343_191)"/>
<path d="M29.9685 18.5429C30.0078 18.5012 30.0341 18.4489 30.044 18.3925C30.0538 18.336 30.0469 18.2779 30.0241 18.2254C30.0012 18.1728 29.9634 18.1282 29.9154 18.0969C29.8673 18.0657 29.8112 18.0492 29.7539 18.0496H20.7787C20.231 18.0496 20.3207 17.7549 20.516 17.3962C20.7114 17.0342 25.6763 7.97899 25.6763 7.97899C25.6987 7.93095 25.7115 7.8829 25.7115 7.82845C25.7114 7.76023 25.6911 7.69357 25.6533 7.63682C25.6154 7.58006 25.5617 7.53574 25.4987 7.50941C25.4358 7.48308 25.3665 7.4759 25.2995 7.48878C25.2325 7.50165 25.1708 7.53402 25.1221 7.58181L11.0508 21.6051C10.9899 21.6627 10.9547 21.7396 10.9547 21.8293C10.9547 21.9991 11.0924 22.1368 11.2622 22.1368H20.862C21.4642 22.1368 21.2496 22.4827 21.1022 22.6845C20.9549 22.8863 13.687 32.9345 13.687 32.9345C13.6464 32.9882 13.6216 33.0521 13.6153 33.1191C13.6091 33.1861 13.6217 33.2535 13.6516 33.3137C13.6816 33.3739 13.7277 33.4246 13.7849 33.46C13.8421 33.4955 13.908 33.5143 13.9753 33.5143C14.0746 33.5143 14.1642 33.4759 14.2283 33.4118C14.2924 33.3477 29.9653 18.5557 29.9653 18.5557L29.9685 18.5525L29.9749 18.5461L29.9685 18.5429Z" fill="white"/>
</g>
<defs>
<linearGradient id="paint0_linear_343_191" x1="20.5" y1="0" x2="20.5" y2="41" gradientUnits="userSpaceOnUse">
<stop stop-color="#7ACBD4"/>
<stop offset="1" stop-color="#29C6B7"/>
</linearGradient>
<clipPath id="clip0_343_191">
<rect width="41" height="41" fill="white"/>
</clipPath>
</defs>
</svg>
