<svg width="54" height="39" viewBox="0 0 54 39" fill="none" xmlns="http://www.w3.org/2000/svg">
<g clip-path="url(#clip0_346_314)">
<path d="M52.8816 14.8615C51.6657 14.0183 48.8795 13.7021 46.7013 14.1237C46.4482 12.0156 45.2829 10.1712 43.2565 8.53742L42.0915 7.69417L41.2808 8.90634C40.2678 10.4874 39.7612 12.7009 39.9131 14.809C39.9637 15.5467 40.217 16.8642 40.9769 18.0237C40.2678 18.4453 38.7987 18.9723 36.8737 18.9723H0.248054L0.14682 19.394C-0.207922 21.5019 -0.207922 28.0895 3.94605 33.1487C7.08684 36.9958 11.7474 38.9458 17.8769 38.9458C31.1492 38.9458 40.9769 32.5688 45.5868 21.0275C47.4105 21.0802 51.3112 21.0275 53.287 17.0748C53.3376 16.9694 53.4388 16.7586 53.7933 15.9683L53.996 15.5467L52.8816 14.8615ZM29.5281 0H23.956V5.27006H29.5281V0ZM29.5281 6.32411H23.956V11.5942H29.5281V6.32411ZM22.9426 6.32411H17.3706V11.5942H22.9426V6.32411ZM16.3572 6.32411H10.7848V11.5942H16.3572V6.32411ZM9.77166 12.6482H4.19935V17.9183H9.77145L9.77166 12.6482ZM16.3572 12.6482H10.7848V17.9183H16.3572V12.6482ZM22.9426 12.6482H17.3706V17.9183H22.9426V12.6482ZM29.5284 12.6482H23.9558V17.9183H29.5284V12.6482ZM36.1138 12.6482H30.5413V17.9183H36.1138V12.6482Z" fill="#2396ED"/>
</g>
<defs>
<clipPath id="clip0_346_314">
<rect width="54" height="39" fill="white"/>
</clipPath>
</defs>
</svg>
