





<svg width="45" height="27" viewBox="0 0 45 27" fill="none" xmlns="http://www.w3.org/2000/svg">
<path d="M22.5 0C16.5 0 12.75 3 11.25 9C13.5 6 16.125 4.875 19.125 5.625C20.8366 6.05285 22.06 7.29475 23.4142 8.66918C25.6203 10.9085 28.1733 13.5 33.75 13.5C39.75 13.5 43.5 10.5 45 4.5C42.75 7.5 40.125 8.625 37.125 7.875C35.4134 7.44715 34.19 6.20525 32.8358 4.83082C30.6297 2.59154 28.0767 0 22.5 0ZM11.25 13.5C5.25 13.5 1.5 16.5 0 22.5C2.25 19.5 4.875 18.375 7.875 19.125C9.58658 19.5529 10.81 20.7947 12.1642 22.1692C14.3703 24.4085 16.9233 27 22.5 27C28.5 27 32.25 24 33.75 18C31.5 21 28.875 22.125 25.875 21.375C24.1634 20.9471 22.94 19.7053 21.5858 18.3308C19.3797 16.0915 16.8267 13.5 11.25 13.5Z" fill="url(#paint0_linear_343_190)"/>
<defs>
<linearGradient id="paint0_linear_343_190" x1="-125.01" y1="864" x2="3761.47" y2="3104.88" gradientUnits="userSpaceOnUse">
<stop stop-color="#2298BD"/>
<stop offset="1" stop-color="#0ED7B5"/>
</linearGradient>
</defs>
</svg>
